<?xml version="1.0" standalone="no"?>
<!DOCTYPE svg PUBLIC "-//W3C//DTD SVG 20010904//EN"
 "http://www.w3.org/TR/2001/REC-SVG-20010904/DTD/svg10.dtd">
<svg version="1.0" xmlns="http://www.w3.org/2000/svg"
 width="1920.000000pt" height="1920.000000pt" viewBox="0 0 1920.000000 1920.000000"
 preserveAspectRatio="xMidYMid meet">
<metadata>
Created by potrace 1.16, written by Peter Selinger 2001-2019
</metadata>
<g transform="translate(0.000000,1920.000000) scale(0.100000,-0.100000)"
fill="#000000" stroke="none">
<path d="M0 9600 l0 -9600 9600 0 9600 0 0 9600 0 9600 -9600 0 -9600 0 0
-9600z m10190 4030 c501 -66 935 -200 1360 -418 386 -198 701 -430 1020 -751
l165 -166 -706 -3 -705 -2 -105 58 c-362 202 -755 327 -1179 376 -157 19 -498
21 -651 5 -292 -29 -600 -105 -874 -214 -81 -32 -315 -147 -393 -194 l-53 -31
-704 0 c-388 0 -705 4 -705 8 0 20 365 366 491 466 458 366 971 623 1523 766
191 49 318 73 526 99 232 29 234 29 545 26 219 -2 316 -8 445 -25z m-2871
-1972 c-330 -381 -558 -825 -680 -1323 -21 -88 -39 -166 -39 -172 0 -10 179
-13 860 -13 l860 0 0 795 0 795 550 0 550 0 0 -2140 0 -2140 -550 0 -550 0 0
795 0 795 -860 0 c-681 0 -860 -3 -860 -12 0 -34 84 -347 120 -453 136 -393
333 -735 599 -1042 l71 -83 -574 0 -574 0 -66 113 c-77 132 -208 403 -261 537
-135 343 -230 750 -266 1130 -15 161 -15 560 0 720 57 596 238 1168 527 1668
l66 112 574 0 574 0 -71 -82z m5889 -20 c74 -128 156 -291 217 -434 53 -122
135 -348 135 -370 0 -12 -170 -14 -1245 -14 l-1245 0 0 -335 0 -335 859 0
c473 0 862 -3 865 -8 2 -4 12 -68 23 -142 25 -190 25 -610 0 -800 -11 -74 -21
-138 -23 -142 -3 -5 -392 -8 -865 -8 l-859 0 0 -795 0 -795 -550 0 -550 0 0
2140 0 2140 1589 0 1589 0 60 -102z m-5086 -4759 c78 -47 313 -163 393 -194
575 -227 1193 -286 1785 -169 330 65 623 172 919 336 l105 58 705 -2 706 -3
-165 -166 c-656 -659 -1436 -1042 -2385 -1170 -148 -20 -212 -23 -490 -23
-277 0 -343 3 -490 23 -220 29 -345 53 -531 101 -552 143 -1065 400 -1523 766
-126 100 -491 446 -491 466 0 4 317 8 705 8 l704 0 53 -31z"/>
<path d="M9455 13357 c-688 -40 -1376 -286 -1960 -701 l-99 -71 287 -3 287 -2
153 78 c346 177 669 281 1066 342 718 111 1496 -24 2130 -369 l94 -51 291 0
291 0 -25 20 c-55 44 -320 219 -395 262 -442 252 -896 404 -1415 474 -144 20
-533 31 -705 21z"/>
<path d="M6405 11430 c-8 -9 -48 -85 -89 -170 -201 -416 -302 -763 -368 -1260
-17 -127 -17 -673 0 -800 66 -499 168 -846 371 -1266 43 -89 84 -165 91 -169
17 -11 370 -12 370 -2 0 5 -23 47 -51 94 -159 270 -289 585 -365 885 -32 128
-114 552 -114 591 0 16 61 17 1183 15 l1182 -3 3 -792 2 -793 255 0 255 0 0
1840 0 1840 -255 0 -255 0 -2 -792 -3 -793 -1182 -3 c-1122 -2 -1183 -1 -1183
15 0 39 82 463 114 591 76 300 206 615 365 885 28 47 51 89 51 94 0 4 -81 8
-181 8 -149 0 -183 -3 -194 -15z"/>
<path d="M10283 11442 l-23 -3 0 -1839 0 -1839 23 -3 c12 -2 127 -2 254 0
l233 3 2 792 3 792 880 5 880 5 6 123 c4 67 4 177 0 245 l-6 122 -880 5 -880
5 -3 632 -2 633 1185 2 1184 3 -77 155 -77 155 -1340 5 c-737 3 -1350 4 -1362
2z"/>
<path d="M7400 6616 c0 -2 44 -35 98 -73 545 -389 1129 -611 1806 -688 182
-21 600 -21 786 0 463 52 879 174 1280 375 216 108 341 184 544 329 l78 56
-290 3 -290 2 -63 -36 c-253 -143 -613 -278 -919 -343 -590 -126 -1164 -103
-1740 70 -229 70 -536 199 -671 285 -38 24 -39 24 -329 24 -159 0 -290 -2
-290 -4z"/>
</g>
</svg>
